# AST/ASF file generated using VICON BodyLanguage
# -----------------------------------------------
:version 1.10
:name VICON
:units
  mass 1.0
  length 0.45
  angle deg
:documentation
   .ast/.asf automatically generated from VICON data using
   VICON BodyBuilder and BodyLanguage model FoxedUp or BRILLIANT.MOD
:root
   order TX TY TZ RX RY RZ
   axis XYZ
   position 0 0 0  
   orientation 0 0 0 
:bonedata
  begin
     id 1 
     name lhipjoint
     direction 0.661853 -0.702389 0.261917 
     length 2.64193 
     axis 0 0 0  XYZ
  end
  begin
     id 2 
     name lfemur
     direction 0.34202 -0.939693 0  
     length 7.01722  
     axis 0 0 20  XYZ
    dof rx ry rz
    limits (-160.0 20.0)
           (-70.0 70.0)
           (-60.0 70.0)
  end
  begin
     id 3 
     name ltibia
     direction 0.34202 -0.939693 0   
     length 8.25008   
     axis 0 0 20   XYZ
    dof rx
    limits (-10.0 170.0)
  end
  begin
     id 4 
     name lfoot
     direction 0.0709916 -0.195048 0.978221   
     length 2.31941   
     axis -90 7.62852e-016 20   XYZ
    dof rx rz
    limits (-45.0 90.0)
           (-70.0 20.0)
  end
  begin
     id 5 
     name ltoes
     direction 1.53586e-011 -4.22017e-011 1   
     length 1.16486   
     axis -90 7.62852e-016 20   XYZ
    dof rx
    limits (-90.0 20.0)
  end
  begin
     id 6 
     name rhipjoint
     direction -0.638185 -0.721362 0.268992   
     length 2.57244  
     axis 0 0 0  XYZ 
  end
  begin
     id 7 
     name rfemur
     direction -0.34202 -0.939693 0   
     length 7.07017   
     axis 0 0 -20   XYZ
    dof rx ry rz
    limits (-160.0 20.0)
           (-70.0 70.0)
           (-70.0 60.0)
  end
  begin
     id 8 
     name rtibia
     direction -0.34202 -0.939693 0   
     length 8.20386   
     axis 0 0 -20   XYZ
    dof rx
    limits (-10.0 170.0)
 end
 begin
     id 9 
     name rfoot
     direction -0.0822429 -0.225961 0.970658   
     length 2.32215  
     axis -90 -7.62852e-016 -20   XYZ
    dof rx rz
    limits (-45.0 90.0)
           (-20.0 70.0)
  end
  begin
     id 10 
     name rtoes
     direction -1.53597e-011 -4.21689e-011 1   
     length 1.16333   
     axis -90 -7.62852e-016 -20   XYZ
    dof rx
    limits (-90.0 20.0)
  end
  begin
     id 11 
     name lowerback
     direction -0.0131557 0.998589 -0.0514484   
     length 2.14993   
     axis 0 0 0   XYZ
    dof rx ry rz
    limits (-20.0 45.0)
           (-30.0 30.0)
           (-30.0 30.0)
  end
  begin
     id 12 
     name upperback
     direction -0.000776481 0.999993 0.00352685   
     length 2.15301   
     axis 0 0 0   XYZ
    dof rx ry rz
    limits (-20.0 45.0)
           (-30.0 30.0)
           (-30.0 30.0)
  end
  begin
     id 13 
     name thorax
     direction 0.00438186 0.999609 0.0276143   
     length 2.15424   
     axis 0 0 0   XYZ
    dof rx ry rz
    limits (-20.0 45.0)
           (-30.0 30.0)
           (-30.0 30.0)
  end
  begin
     id 14 
     name lowerneck
     direction -0.0488006 0.998094 0.0377807   
     length 1.90481   
     axis 0 0 0   XYZ
    dof rx ry rz
    limits (-20.0 45.0)
           (-30.0 30.0)
           (-30.0 30.0)
  end
  begin
     id 15 
     name upperneck
     direction 0.0443769 0.990702 -0.12861   
     length 1.91305   
     axis 0 0 0   XYZ
    dof rx ry rz
    limits (-20.0 45.0)
           (-30.0 30.0)
           (-30.0 30.0)
  end
  begin
     id 16
     name head
     direction 0.0165599 0.998647 -0.0492982  
     length 1.92369  
     axis 0 0 0   XYZ
    dof rx ry rz
    limits (-20.0 45.0)
           (-30.0 30.0)
           (-30.0 30.0)
  end
  begin
     id 17 
     name lclavicle
     direction 0.911936 0.410197 -0.0105506  
     length 3.52622  
     axis 0 0 0   XYZ
    dof ry rz
    limits (-20.0 10.0)
           (0.0 20.0)
  end
  begin
     id 18 
     name lhumerus
     direction 1 -4.48974e-011 -2.48591e-028   
     length 5.47651   
     axis 180 -30 -90   XYZ
    dof rx ry rz
    limits (-60.0 90.0)
           (-90.0 90.0)
           (-90.0 90.0)
  end
  begin
     id 19
     name lradius
     direction 1 -4.48938e-011 -4.40099e-027   
     length 3.09058   
     axis 180 -30 -90   XYZ
    dof rx
    limits (-10.0 170.0)
  end
  begin
     id 20
     name lwrist
     direction 1 -4.49042e-011 -2.99852e-027   
     length 1.54529   
     axis 1.95339e-015 90 90   XYZ
    dof ry
    limits (-180.0 0.0)
 end
  begin
     id 21 
     name lhand
     direction 1 -4.48815e-011 -5.98193e-027   
     length 0.771611   
     axis 3.82337e-015 90 90   XYZ
    dof rx rz
    limits (-90.0 90.0)
           (-45.0 45.0)
  end
  begin
     id 22 
     name lfingers
     direction 1 -4.49034e-011 -1.1993e-026   
     length 0.622093   
     axis 7.64668e-015 90 90   XYZ
    dof rx
    limits (0.0 90.0)
  end
  begin
     id 23
     name lthumb
     direction 0.707107 -6.34867e-011 0.707107   
     length 0.893204   
     axis -90 45 -1.62303e-014   XYZ
    dof rx rz
    limits (-45.0 45.0)
           (-45.0 45.0)
  end
  begin
     id 24 
     name rclavicle
     direction -0.93442 0.355634 -0.0195692   
     length 3.62463  
     axis 0 0 0   XYZ 
    dof ry rz
    limits (-10.0 20.0)
           (-20.0 0.0)
  end
  begin
     id 25 
     name rhumerus
     direction -1 -4.48957e-011 -1.19147e-027  
     length 5.14182   
     axis 180 30 90   XYZ
    dof rx ry rz
    limits (-90.0 60.0)
           (-90.0 90.0)
           (-90.0 90.0)
  end
  begin
     id 26 
     name rradius
     direction -1 -4.48952e-011 -3.81062e-027   
     length 3.35565   
     axis 180 30 90   XYZ
    dof rx
    limits (-10.0 170.0)
  end
  begin
     id 27 
     name rwrist
     direction -1 -4.48973e-011 -2.99621e-027   
     length 1.67782   
     axis 1.95339e-015 -90 -90   XYZ
    dof ry
    limits (-180.0 0.0)
  end
  begin
     id 28
     name rhand
     direction -1 -4.48895e-011 -5.98727e-027   
     length 0.801042   
     axis 3.82337e-015 -90 -90   XYZ
    dof rx rz
    limits (-90.0 90.0)
           (-45.0 45.0)
  end
  begin
     id 29
     name rfingers
     direction -1 -4.49065e-011 -1.19972e-026   
     length 0.645821   
     axis 7.64668e-015 -90 -90   XYZ
    dof rx
    limits (0.0 90.0)
  end
  begin
     id 30
     name rthumb
     direction -0.707107 -6.34957e-011 0.707107   
     length 0.927273   
     axis -90 -45 1.62303e-014   XYZ
    dof rx rz
    limits (-45.0 45.0)
           (-45.0 45.0)
  end
:hierarchy
  begin
    root lhipjoint rhipjoint lowerback
    lhipjoint lfemur
    lfemur ltibia
    ltibia lfoot
    lfoot ltoes
    rhipjoint rfemur
    rfemur rtibia
    rtibia rfoot
    rfoot rtoes
    lowerback upperback
    upperback thorax
    thorax lowerneck lclavicle rclavicle
    lowerneck upperneck
    upperneck head
    lclavicle lhumerus
    lhumerus lradius
    lradius lwrist
    lwrist lhand lthumb
    lhand lfingers
    rclavicle rhumerus
    rhumerus rradius
    rradius rwrist
    rwrist rhand rthumb
    rhand rfingers
  end

#!OML:ASF E:\Style4\Style4.ASF
:FULLY-SPECIFIED
:DEGREES
296
root -0.0932931 17.8084 -1.55464 -0.0286178 0.662487 2.0152
lowerback 7.37905 2.5163 -0.748305
upperback 3.02458 3.29285 0.0131202
thorax -1.0528 1.63967 0.164001
lowerneck -1.9365 -5.0124 -6.91215
upperneck 4.85012 -6.66208 4.55717
head 2.32153 -3.34477 2.49258
rclavicle 4.01048e-014 -2.38542e-014
rhumerus 30.9873 69.3339 -35.5887
rradius 76.7012
rwrist -30.7001
rhand -12.3305 26.0704
rfingers 7.12502
rthumb 13.7385 -3.45607
lclavicle 4.01048e-014 -2.38542e-014
lhumerus 66.312 -42.2328 18.2778
lradius 82.6514
lwrist 13.6068
lhand -18.7629 12.1479
lfingers 7.12502
lthumb 7.53402 41.9937
rfemur -13.1372 2.8712 16.731
rtibia 31.8072
rfoot -17.3439 -13.1561
rtoes -11.7159
lfemur -12.0762 -3.19796 -20.4962
ltibia 29.4986
lfoot -17.2891 8.68805
ltoes -15.8777
297
root -0.0928867 17.808 -1.55436 -0.0268294 0.649744 2.04264
lowerback 7.39301 2.43495 -0.784611
upperback 3.05189 3.18194 -0.00416431
thorax -1.03232 1.58405 0.17582
lowerneck -2.04709 -4.93612 -6.94497
upperneck 4.88798 -6.55376 4.58055
head 2.35 -3.28994 2.50799
rclavicle -9.29318e-015 -1.74931e-014
rhumerus 32.9486 70.146 -33.3225
rradius 78.534
rwrist -31.1513
rhand -12.1471 26.0603
rfingers 7.12502
rthumb 13.9152 -3.4541
lclavicle -9.29318e-015 -1.74931e-014
lhumerus 66.116 -42.684 18.2291
lradius 81.2805
lwrist 13.3811
lhand -18.8208 11.9731
lfingers 7.12502
lthumb 7.47811 41.8209
rfemur -13.191 2.85758 16.6993
rtibia 31.9132
rfoot -17.3803 -13.1863
rtoes -11.7891
lfemur -12.057 -3.20901 -20.5276
ltibia 29.4688
lfoot -17.2957 8.75442
ltoes -16.2179
298
root -0.0903159 17.8073 -1.55474 -0.030449 0.649599 2.12781
lowerback 7.41566 2.35606 -0.867558
upperback 3.07754 3.07091 -0.028435
thorax -1.02028 1.52812 0.206056
lowerneck -2.01775 -4.87666 -6.90043
upperneck 4.75409 -6.47263 4.53797
head 2.2908 -3.24917 2.48989
rclavicle 9.0944e-015 -5.96354e-015
rhumerus 34.9794 70.8463 -31.0055
rradius 80.445
rwrist -31.5316
rhand -11.9885 25.976
rfingers 7.12502
rthumb 14.068 -3.52786
lclavicle 9.0944e-015 -5.96354e-015
lhumerus 65.9412 -43.1527 18.1363
lradius 79.9835
lwrist 13.3442
lhand -19.0486 12.0767
lfingers 7.12502
lthumb 7.25827 41.9322
rfemur -13.2175 2.80688 16.5878
rtibia 31.9722
rfoot -17.4833 -13.1311
rtoes -11.5694
lfemur -12.0542 -3.1987 -20.6387
ltibia 29.4811
lfoot -17.2321 8.80174
ltoes -16.7004
299
root -0.0873962 17.8065 -1.55385 -0.0208735 0.617129 2.2132
lowerback 7.38536 2.27981 -0.967058
upperback 3.11695 2.96322 -0.0389103
thorax -0.96616 1.47351 0.262083
lowerneck -1.98093 -4.80532 -6.86187
upperneck 4.60124 -6.37539 4.49299
head 2.2233 -3.20047 2.47286
rclavicle -2.98177e-014 6.75868e-015
rhumerus 37.2667 71.3285 -28.4451
rradius 82.4734
rwrist -31.9098
rhand -11.565 25.7862
rfingers 7.12502
rthumb 14.4762 -3.68886
lclavicle -2.98177e-014 6.75868e-015
lhumerus 65.7517 -43.6368 18.0291
lradius 78.8168
lwrist 13.2172
lhand -18.8215 12.1608
lfingers 7.12502
lthumb 7.47745 42.0086
rfemur -13.2186 2.76179 16.4751
rtibia 31.9492
rfoot -17.5184 -13.0398
rtoes -11.2486
lfemur -12.1022 -3.18953 -20.7425
ltibia 29.5808
lfoot -17.3422 8.75165
ltoes -16.2582
300
root -0.0877193 17.8061 -1.55474 -0.0391246 0.495173 1.93125
lowerback 7.40872 2.22604 -0.717317
upperback 3.14593 2.90973 0.0429699
thorax -0.940619 1.44791 0.210892
lowerneck -1.98561 -4.73754 -6.84169
upperneck 4.5232 -6.28326 4.48712
head 2.19129 -3.15381 2.47085
rclavicle 2.85753e-014 -1.98785e-014
rhumerus 39.6107 71.5937 -25.8486
rradius 84.4731
rwrist -32.2119
rhand -11.2711 25.8232
rfingers 7.12502
rthumb 14.7593 -3.63136
lclavicle 2.85753e-014 -1.98785e-014
lhumerus 65.6642 -44.2396 17.7135
lradius 77.7527
lwrist 12.9894
lhand -18.7315 12.1787
lfingers 7.12502
lthumb 7.56429 42.0235
rfemur -13.2347 2.89247 16.8109
rtibia 31.9366
rfoot -17.4383 -13.099
rtoes -11.2825
lfemur -12.1538 -3.0726 -20.409
ltibia 29.6908
lfoot -17.3961 8.63449
ltoes -15.6574
301
root -0.0883694 17.8041 -1.5589 -0.0289541 0.368383 1.45609
lowerback 7.47475 2.18276 -0.219468
upperback 3.13105 2.88709 0.13682
thorax -0.972773 1.43952 0.0280437
lowerneck -1.94901 -4.68743 -6.74359
upperneck 4.46494 -6.21975 4.46101
head 2.15592 -3.12105 2.44749
rclavicle -1.04859e-014 -1.59028e-015
rhumerus 41.5442 71.7257 -23.7267
rradius 86.5003
rwrist -32.6308
rhand -11.1064 25.607
rfingers 7.12502
rthumb 14.918 -3.83585
lclavicle -1.04859e-014 -1.59028e-015
lhumerus 65.7719 -44.9546 17.0731
lradius 76.7696
lwrist 12.7721
lhand -18.973 12.268
lfingers 7.12502
lthumb 7.33118 42.121
rfemur -13.2976 3.08235 17.3643
rtibia 31.9526
rfoot -17.378 -13.2304
rtoes -11.3565
lfemur -12.2395 -2.97175 -19.8557
ltibia 29.7799
lfoot -17.4239 8.51769
ltoes -15.0226
